<svg fill="currentColor" height="800px" width="800px" version="1.1" id="Layer_1" xmlns="http://www.w3.org/2000/svg" xmlns:xlink="http://www.w3.org/1999/xlink"
	 viewBox="0 0 512 512" xml:space="preserve">
<g transform="translate(0 -1)">
	<g>
		<g>
			<path d="M247.007,279.488c-17.988-10.206-30.652-13.508-31.633-13.747c-2.893-0.717-5.956,0.145-8.073,2.253l-16.99,16.99
				c-3.063,2.987-6.11,5.649-9.148,8.363l57.574,50.56c8.977,7.441,20.412,10.897,31.915,9.583
				c11.529-1.314,22.178-7.219,29.978-16.623l5.615-7.492c-0.35-0.393-0.751-0.759-1.092-1.161
				c-5.103-5.965-10.223-11.349-15.292-16.273l-27.827,27.844c-1.664,1.664-3.849,2.5-6.033,2.5c-2.185,0-4.369-0.836-6.033-2.5
				c-3.336-3.328-3.336-8.738-0.008-12.066l27.179-27.204c-5.274-4.403-10.402-8.286-15.334-11.691l-25.37,25.37
				c-1.664,1.673-3.849,2.5-6.033,2.5c-2.185,0-4.369-0.828-6.033-2.5c-3.337-3.328-3.337-8.73,0-12.066L247.007,279.488z"/>
			<path d="M481.178,377.096c-1.007-0.418-2.082-0.649-3.174-0.666c-1.203-0.017-108.954-2.133-158.763-35.951l-5.214,6.955
				c-10.889,13.141-25.515,21.197-41.446,23.014c-2.261,0.256-4.523,0.384-6.767,0.384c-13.824,0-27.17-4.83-38.153-13.943
				l-59.785-52.497c-27.699,21.342-54.238,31.266-79.078,29.244c-35.721-2.978-56.098-30.225-56.286-30.481
				c-1.647-2.27-4.275-3.703-7.125-3.524c-2.807,0.068-5.41,1.519-6.938,3.883c-26.163,40.252-18.372,86.784-12.8,107.631
				C2.372,412.338,0,415.402,0,419.097v42.667c0,4.71,3.823,8.533,8.533,8.533H128c2.261,0,4.437-0.905,6.033-2.5l5.018-5.026
				c22.502,6.067,98.483,24.67,183.194,24.661c63.266,0,131.413-10.385,185.728-44.117c2.5-1.562,4.028-4.301,4.028-7.253v-25.6
				c0-0.734-0.094-1.468-0.282-2.167C507.802,388.829,483.925,378.256,481.178,377.096z M494.933,431.257
				c-127.266,75.238-332.535,20.42-356.275,13.705c-0.7-0.179-1.417-0.265-2.125-0.265c-2.236,0-4.412,0.879-6.033,2.5l-6.033,6.033
				H17.067v-25.609l74.061-0.094c12.151,0,23.91,1.212,34.961,3.592c0.077,0.017,0.145,0.034,0.222,0.051
				c8.55,1.835,16.887,3.507,25.131,5.086c2.295,0.444,4.565,0.87,6.835,1.289c6.852,1.28,13.611,2.475,20.25,3.584
				c1.434,0.239,2.901,0.503,4.326,0.734c7.791,1.263,15.42,2.398,22.912,3.439c1.963,0.273,3.883,0.521,5.828,0.777
				c5.939,0.794,11.785,1.519,17.536,2.176c1.818,0.205,3.661,0.427,5.461,0.623c7.066,0.76,13.986,1.434,20.753,2.005
				c1.434,0.128,2.816,0.213,4.233,0.324c5.538,0.444,10.974,0.819,16.316,1.135c1.86,0.111,3.721,0.23,5.564,0.324
				c6.374,0.333,12.663,0.614,18.756,0.785c0.503,0.017,0.973,0.017,1.468,0.034c5.7,0.145,11.247,0.213,16.691,0.23
				c0.777,0.009,1.613,0.034,2.389,0.034c0.819,0,1.562-0.034,2.364-0.034c6.46-0.026,12.791-0.111,18.893-0.299
				c0.631-0.026,1.229-0.06,1.86-0.077c5.751-0.196,11.315-0.478,16.751-0.811c1.126-0.068,2.27-0.128,3.379-0.205
				c5.623-0.375,11.068-0.828,16.333-1.331c1.092-0.102,2.15-0.213,3.226-0.324c5.171-0.521,10.223-1.092,15.053-1.724
				c0.205-0.026,0.427-0.051,0.64-0.077c5.018-0.657,9.796-1.382,14.447-2.142c0.93-0.154,1.86-0.299,2.773-0.452
				c4.471-0.751,8.781-1.536,12.911-2.355c0.657-0.128,1.28-0.265,1.928-0.401c3.84-0.776,7.535-1.579,11.076-2.398
				c0.486-0.119,0.99-0.222,1.476-0.341c3.746-0.879,7.287-1.783,10.692-2.696c0.7-0.188,1.382-0.375,2.074-0.563
				c3.328-0.913,6.537-1.826,9.532-2.739c0.265-0.085,0.495-0.162,0.759-0.239c2.842-0.879,5.513-1.749,8.055-2.611
				c0.469-0.162,0.956-0.324,1.425-0.478c2.56-0.887,4.958-1.749,7.202-2.603c0.452-0.171,0.879-0.333,1.323-0.503
				c2.15-0.828,4.181-1.63,6.025-2.398c0.077-0.034,0.154-0.06,0.23-0.094c1.323-0.555,2.577-1.092,3.746-1.604V431.257z"/>
			<path d="M506.351,172.208c5.572-20.847,13.363-67.379-12.8-107.631c-1.519-2.347-4.122-3.789-6.921-3.866
				c-2.594-0.111-5.47,1.229-7.125,3.49C479.3,64.475,458.923,91.73,423.202,94.7c-23.748,1.946-48.964-6.852-75.23-26.172
				l-10.052,7.543l-53.777,42.035c-10.812,8.977-24.124,13.79-37.948,13.79c-2.253,0-4.506-0.119-6.775-0.384
				c-15.932-1.818-30.558-9.873-41.19-22.69l-5.461-7.279C142.967,135.327,35.2,137.477,33.997,137.494
				c-1.092,0.017-2.167,0.247-3.174,0.666c-2.748,1.161-26.624,11.733-30.541,31.198C0.094,170.058,0,170.791,0,171.534v0.119
				v25.481c0,2.944,1.527,5.692,4.028,7.245c54.323,33.741,122.428,44.126,185.711,44.117c84.565,0,160.486-18.543,183.202-24.653
				l5.026,5.018c1.596,1.604,3.772,2.5,6.033,2.5h119.467c4.71,0,8.533-3.823,8.533-8.533v-42.667
				C512,176.475,509.628,173.403,506.351,172.208z M494.933,214.294H387.533l-6.033-6.033c-2.185-2.185-5.726-2.918-8.695-2.082
				c-23.211,6.562-228.463,61.372-355.738-13.858v-7.006c1.417,0.632,2.987,1.297,4.642,1.971c0.358,0.154,0.734,0.299,1.109,0.452
				c1.92,0.785,3.959,1.587,6.178,2.415c0.137,0.051,0.247,0.094,0.375,0.145c2.261,0.836,4.719,1.707,7.287,2.577
				c0.597,0.205,1.186,0.41,1.801,0.614c2.628,0.87,5.376,1.758,8.311,2.645c0.478,0.145,0.99,0.282,1.468,0.427
				c2.654,0.785,5.436,1.579,8.337,2.355c0.725,0.196,1.417,0.393,2.159,0.589c3.251,0.853,6.673,1.698,10.232,2.534
				c0.887,0.205,1.801,0.41,2.705,0.614c3.422,0.776,6.955,1.536,10.65,2.27c0.478,0.094,0.913,0.196,1.399,0.29
				c3.985,0.776,8.175,1.519,12.484,2.236c1.152,0.196,2.313,0.384,3.49,0.572c4.369,0.7,8.858,1.365,13.542,1.971
				c0.896,0.12,1.835,0.222,2.739,0.333c4.181,0.529,8.491,1.015,12.919,1.459c1.22,0.119,2.406,0.247,3.644,0.367
				c5.06,0.478,10.291,0.888,15.676,1.254c1.374,0.085,2.773,0.162,4.173,0.247c5.146,0.307,10.411,0.563,15.846,0.751
				c0.717,0.026,1.399,0.068,2.116,0.085c5.914,0.188,12.058,0.265,18.321,0.29c0.87,0,1.681,0.043,2.569,0.043
				c0.828,0,1.715-0.034,2.551-0.043c5.248-0.017,10.59-0.085,16.077-0.222c0.683-0.017,1.323-0.026,2.005-0.043
				c6.025-0.171,12.237-0.444,18.534-0.777c1.946-0.102,3.917-0.222,5.888-0.341c5.18-0.307,10.453-0.674,15.812-1.101
				c1.562-0.119,3.081-0.222,4.659-0.358c6.707-0.563,13.568-1.229,20.557-1.988c1.886-0.205,3.806-0.435,5.717-0.657
				c5.649-0.64,11.392-1.357,17.229-2.125c2.014-0.273,4.011-0.529,6.05-0.811c7.458-1.033,15.036-2.167,22.784-3.422
				c1.493-0.247,3.038-0.521,4.54-0.776c6.562-1.092,13.235-2.27,20.002-3.533c2.313-0.427,4.625-0.862,6.963-1.314
				c8.226-1.579,16.546-3.243,25.079-5.077c0.077-0.017,0.145-0.026,0.222-0.043c11.051-2.389,22.81-3.593,34.953-3.593h0.085
				l73.984,0.085V214.294z"/>
			<path d="M241.35,114.558c11.546,1.323,22.938-2.142,32.094-9.745l54.101-42.291l6.673-5.009
				c-4.13-3.558-8.277-7.322-12.45-11.383l-17.067-17.067c-2.108-2.108-5.154-2.953-8.073-2.253
				c-0.981,0.239-13.653,3.533-31.642,13.747l22.647,22.639c3.328,3.328,3.328,8.73,0,12.066c-1.664,1.664-3.849,2.5-6.033,2.5
				c-2.185,0-4.369-0.836-6.033-2.5l-25.387-25.37c-4.924,3.405-10.061,7.296-15.343,11.708l27.196,27.179
				c3.328,3.337,3.328,8.738,0,12.075c-1.664,1.664-3.849,2.5-6.033,2.5c-2.185,0-4.369-0.836-6.033-2.5l-27.844-27.827
				c-5.069,4.924-10.18,10.291-15.275,16.256c-0.341,0.393-0.742,0.759-1.092,1.152l5.871,7.825
				C219.172,107.338,229.813,113.243,241.35,114.558z"/>
		</g>
	</g>
</g>
</svg>
